<?xml version="1.0" encoding="UTF-8" standalone="no"?>
<svg
   xmlns:dc="http://purl.org/dc/elements/1.1/"
   xmlns:cc="http://creativecommons.org/ns#"
   xmlns:rdf="http://www.w3.org/1999/02/22-rdf-syntax-ns#"
   xmlns:svg="http://www.w3.org/2000/svg"
   xmlns="http://www.w3.org/2000/svg"
   xmlns:sodipodi="http://sodipodi.sourceforge.net/DTD/sodipodi-0.dtd"
   xmlns:inkscape="http://www.inkscape.org/namespaces/inkscape"
   height="36.512501mm"
   width="65.167557mm"
   inkscape:version="1.0 (1.0+r73+1)"
   sodipodi:docname="server.svg"
   id="svg4"
   version="1.1"
   viewBox="0 0 246.30241 137.99999"
   role="img"
   class="svg-inline--fa fa-server fa-w-16"
   data-icon="server"
   data-prefix="fas"
   focusable="false"
   aria-hidden="true">
  <metadata
     id="metadata10">
    <rdf:RDF>
      <cc:Work
         rdf:about="">
        <dc:format>image/svg+xml</dc:format>
        <dc:type
           rdf:resource="http://purl.org/dc/dcmitype/StillImage" />
        <dc:title />
      </cc:Work>
    </rdf:RDF>
  </metadata>
  <defs
     id="defs8" />
  <sodipodi:namedview
     units="mm"
     fit-margin-bottom="0"
     fit-margin-right="0"
     fit-margin-left="0"
     fit-margin-top="0"
     inkscape:current-layer="svg4"
     inkscape:window-maximized="1"
     inkscape:window-y="27"
     inkscape:window-x="0"
     inkscape:cy="80.582597"
     inkscape:cx="196.50384"
     inkscape:zoom="1.3340661"
     showgrid="false"
     id="namedview6"
     inkscape:window-height="658"
     inkscape:window-width="1366"
     inkscape:pageshadow="2"
     inkscape:pageopacity="0"
     guidetolerance="10"
     gridtolerance="10"
     objecttolerance="10"
     borderopacity="1"
     bordercolor="#666666"
     pagecolor="#ffffff"
     inkscape:document-rotation="0" />
  <path
     d="m 9.563242,4 h 7.490814 c 0.295503,0 0.635382,0.327 0.635382,18 v 92 c 0,17.673 -0.339879,18 -0.635382,18 H 9.563242 C 9.267739,132 8.927861,131.673 8.927861,114 V 22 c 0,-17.673 0.339878,-18 0.635381,-18 z"
     style="opacity:0.13180452;fill:#787878;fill-opacity:1;stroke-width:0.135569"
     id="path2428"
     sodipodi:nodetypes="sssssssss" />
  <path
     sodipodi:nodetypes="sssssssss"
     id="path2428-3"
     style="opacity:0.13180452;fill:#787878;fill-opacity:1;stroke-width:0.135569"
     d="m 29.563242,4 h 7.490814 c 0.295503,0 0.635382,0.327 0.635382,18 v 92 c 0,17.673 -0.339879,18 -0.635382,18 h -7.490814 c -0.295502,0 -0.635381,-0.327 -0.635381,-18 V 22 c 0,-17.673 0.339879,-18 0.635381,-18 z" />
  <path
     sodipodi:nodetypes="sssssssss"
     id="path2428-5"
     style="opacity:0.13180452;fill:#787878;fill-opacity:1;stroke-width:0.135569"
     d="m 49.563242,4 h 7.490814 c 0.295503,0 0.635382,0.327 0.635382,18 v 92 c 0,17.673 -0.339879,18 -0.635382,18 h -7.490814 c -0.295503,0 -0.635381,-0.327 -0.635381,-18 V 22 c 0,-17.673 0.339878,-18 0.635381,-18 z" />
  <path
     d="m 69.563242,4 h 7.490814 c 0.295503,0 0.635382,0.327 0.635382,18 v 92 c 0,17.673 -0.339879,18 -0.635382,18 h -7.490814 c -0.295502,0 -0.635381,-0.327 -0.635381,-18 V 22 c 0,-17.673 0.339879,-18 0.635381,-18 z"
     style="opacity:0.13180452;fill:#787878;fill-opacity:1;stroke-width:0.135569"
     id="path2428-3-6"
     sodipodi:nodetypes="sssssssss" />
  <path
     sodipodi:nodetypes="sssssssss"
     id="path2428-2"
     style="opacity:0.13180452;fill:#787878;fill-opacity:1;stroke-width:0.135569"
     d="m 89.563242,4 h 7.49081 c 0.29551,0 0.63539,0.327 0.63539,18 v 92 c 0,17.673 -0.33988,18 -0.63539,18 h -7.49081 c -0.2955,0 -0.63538,-0.327 -0.63538,-18 V 22 c 0,-17.673 0.33988,-18 0.63538,-18 z" />
  <path
     d="m 109.56324,4 h 7.49081 c 0.29551,0 0.63539,0.327 0.63539,18 v 92 c 0,17.673 -0.33988,18 -0.63539,18 h -7.49081 c -0.2955,0 -0.63538,-0.327 -0.63538,-18 V 22 c 0,-17.673 0.33988,-18 0.63538,-18 z"
     style="opacity:0.13180452;fill:#787878;fill-opacity:1;stroke-width:0.135569"
     id="path2428-3-9"
     sodipodi:nodetypes="sssssssss" />
  <path
     sodipodi:nodetypes="sssssssss"
     id="path2428-6"
     style="opacity:0.13180452;fill:#787878;fill-opacity:1;stroke-width:0.135569"
     d="m 129.56324,4 h 7.49081 c 0.2955,0 0.63538,0.327 0.63538,18 v 92 c 0,17.673 -0.33988,18 -0.63538,18 h -7.49081 c -0.2955,0 -0.63538,-0.327 -0.63538,-18 V 22 c 0,-17.673 0.33988,-18 0.63538,-18 z" />
  <path
     d="m 149.56324,4 h 7.49081 c 0.2955,0 0.63538,0.327 0.63538,18 v 92 c 0,17.673 -0.33988,18 -0.63538,18 h -7.49081 c -0.2955,0 -0.63539,-0.327 -0.63539,-18 V 22 c 0,-17.673 0.33988,-18 0.63539,-18 z"
     style="opacity:0.13180452;fill:#787878;fill-opacity:1;stroke-width:0.135569"
     id="path2428-3-0"
     sodipodi:nodetypes="sssssssss" />
  <path
     d="m 169.56324,4 h 7.49081 c 0.2955,0 0.63538,0.327 0.63538,18 v 92 c 0,17.673 -0.33988,18 -0.63538,18 h -7.49081 c -0.29551,0 -0.63539,-0.327 -0.63539,-18 V 22 c 0,-17.673 0.33988,-18 0.63539,-18 z"
     style="opacity:0.13180452;fill:#787878;fill-opacity:1;stroke-width:0.135569"
     id="path2428-5-6"
     sodipodi:nodetypes="sssssssss" />
  <path
     sodipodi:nodetypes="sssssssss"
     id="path2428-3-6-2"
     style="opacity:0.13180452;fill:#787878;fill-opacity:1;stroke-width:0.135569"
     d="m 189.56324,4 h 7.49081 c 0.2955,0 0.63538,0.327 0.63538,18 v 92 c 0,17.673 -0.33988,18 -0.63538,18 h -7.49081 c -0.29551,0 -0.63539,-0.327 -0.63539,-18 V 22 c 0,-17.673 0.33988,-18 0.63539,-18 z" />
  <path
     d="m 209.56324,4 h 7.49081 c 0.29551,0 0.63539,0.327 0.63539,18 v 92 c 0,17.673 -0.33988,18 -0.63539,18 h -7.49081 c -0.2955,0 -0.63538,-0.327 -0.63538,-18 V 22 c 0,-17.673 0.33988,-18 0.63538,-18 z"
     style="opacity:0.13180452;fill:#787878;fill-opacity:1;stroke-width:0.135569"
     id="path2428-2-6"
     sodipodi:nodetypes="sssssssss" />
  <path
     sodipodi:nodetypes="sssssssss"
     id="path2428-3-9-1"
     style="opacity:0.13180452;fill:#787878;fill-opacity:1;stroke-width:0.135569"
     d="m 229.56323,4 h 7.49081 c 0.29551,0 0.63539,0.327 0.63539,18 v 92 c 0,17.673 -0.33988,18 -0.63539,18 h -7.49081 c -0.2955,0 -0.63538,-0.327 -0.63538,-18 V 22 c 0,-17.673 0.33988,-18 0.63538,-18 z" />
</svg>
